<svg xmlns="http://www.w3.org/2000/svg" viewBox="0 0 683.44 91.66"><defs><style>.cls-1{fill:#33475b;}.cls-2{fill:#ff7a59;}.cls-3{fill:#fff;}</style></defs><title>Asset 2</title><g id="Layer_2" data-name="Layer 2"><g id="Layer_1-2" data-name="Layer 1"><path class="cls-1" d="M58.22,26c0,13.84-10.85,24.4-24.69,24.4H14V86.75H0V1.14H33.53A24.64,24.64,0,0,1,58.22,26Zm-13.7.14c0-7.42-5.57-12.27-13-12.27H14v24.4H31.53C39,38.24,44.52,33.67,44.52,26.11Z"/><path class="cls-1" d="M156.33,0h13.55V86.75H156.33Z"/><rect class="cls-1" x="183.72" y="29.68" width="13.41" height="57.07"/><path class="cls-1" d="M292.59,29.48V29a23.32,23.32,0,0,0-4.57-.43,21.1,21.1,0,0,0-17.55,9V29.68H256.92V86.75h13.55v-29a16,16,0,0,1,11.77-15.93,35.13,35.13,0,0,1,6.27-8.81A36.21,36.21,0,0,1,292.59,29.48Z"/><path class="cls-1" d="M331.66,29.68v6a26.91,26.91,0,0,0-18.41-7.13,28.55,28.55,0,0,0-20.66,8.78,28.94,28.94,0,0,0-3.12,3.86,30.22,30.22,0,0,0-5.18,17c0,16.55,12.84,29.68,29,29.68a26.34,26.34,0,0,0,20.41-9.57,16.87,16.87,0,0,0,11.55,9.15V29.68ZM315,75.34a17.13,17.13,0,1,1,17.12-17.12A17,17,0,0,1,315,75.34Z"/><path class="cls-1" d="M413.32,0V86.75H399.77v-6a26.92,26.92,0,0,1-18.41,7.14c-16.12,0-29-13.13-29-29.68s12.85-29.68,29-29.68a26.91,26.91,0,0,1,18.41,7.13V0ZM400.2,58.22a17.13,17.13,0,1,0-17.13,17.12A17.09,17.09,0,0,0,400.2,58.22Z"/><path class="cls-1" d="M423.4,65.64v-36h13.42V63.92c0,7,4.42,11.42,10.56,11.42s10.55-4.42,10.55-11.42V29.68h13.42v36c0,13.69-9,22.26-24,22.26S423.4,79.33,423.4,65.64Z"/><path class="cls-1" d="M478.91,58.22c0-16.7,13-29.68,30.67-29.68,15.13,0,26.54,9.27,29.68,22.4H525.14a17.13,17.13,0,1,0,0,14.55h14.12c-3.14,13.13-14.55,22.41-29.68,22.41C491.89,87.9,478.91,74.91,478.91,58.22Z"/><path class="cls-1" d="M572.38,75.62h-2.73c-4.28,0-7.56-3.14-7.56-8.13V30.79H576.5V19.37H562.09V1.14H548.53V19.37h-9.41V30.79h9.41V69.06c0,10.56,9,18.84,19.41,18.84,1.85,0,7.82-.28,12.92-.69l-.55-.52A38.92,38.92,0,0,1,572.38,75.62Z"/><path class="cls-1" d="M609.48,87.9c17.7,0,30.68-13,30.68-29.68s-13-29.68-30.68-29.68-30.67,13-30.67,29.68a29.4,29.4,0,0,0,5.55,17.4h1.78l.81,3.09A30.9,30.9,0,0,0,609.48,87.9Zm0-46.81a17.13,17.13,0,1,1-17.12,17.13A17,17,0,0,1,609.48,41.09Z"/><path class="cls-1" d="M584.36,75.62A28.25,28.25,0,0,0,587,78.71l-.81-3.09Z"/><path class="cls-1" d="M683.44,29V41.66a24.28,24.28,0,0,0-4.85-.57c-9.85,0-17.27,6.71-17.27,16.7v29H647.77V29.68h13.55v7.85a21.1,21.1,0,0,1,17.55-9A23.32,23.32,0,0,1,683.44,29Z"/><path class="cls-1" d="M204.24,1.14a15.41,15.41,0,0,1,1.69,7,14.82,14.82,0,0,1-1.29,6h18.61V86.75h13.84V14.13h19.83v-13Z"/><path class="cls-2" d="M190.43,0a8.13,8.13,0,0,0-8.13,8.13,8.13,8.13,0,0,0,16.26,0A8.13,8.13,0,0,0,190.43,0Z"/><path class="cls-1" d="M105.19,12.83a30.55,30.55,0,1,0,30.55,30.55A30.58,30.58,0,0,0,105.19,12.83Z"/><path class="cls-1" d="M148.28,43.09a43.09,43.09,0,1,0-58,40.45c-3.12,3.9-8.19,6.66-14.13,7.62,10.65,1,38.59,2.21,58-16.16l0,0h0a43.43,43.43,0,0,0,6.09-6.9l.16-.2h0A42.79,42.79,0,0,0,148.28,43.09ZM105.19,76.87a33.49,33.49,0,1,1,33.49-33.49A33.53,33.53,0,0,1,105.19,76.87Z"/><path class="cls-3" d="M119.28,30.88H88.58a1.48,1.48,0,0,1,0-2.95h30.7a1.48,1.48,0,0,1,0,2.95Z"/><path class="cls-3" d="M119.28,39.92H88.58a1.48,1.48,0,0,1,0-3h30.7a1.48,1.48,0,0,1,0,3Z"/><path class="cls-3" d="M119.28,49H88.58a1.48,1.48,0,0,1,0-3h30.7a1.48,1.48,0,0,1,0,3Z"/><path class="cls-3" d="M119.28,58H88.58a1.48,1.48,0,0,1,0-3h30.7a1.48,1.48,0,0,1,0,3Z"/></g></g></svg>